<?xml version="1.0" encoding="UTF-8"?>
<svg id="Layer_2" data-name="Layer 2" xmlns="http://www.w3.org/2000/svg" version="1.1" viewBox="0 0 294.9 114">
  <defs>
    <style>
      .cls-1 {
        fill: #b6e330;
        fill-rule: evenodd;
        stroke-width: 0px;
      }
    </style>
  </defs>
  <g id="Layer_1-2" data-name="Layer 1-2">
    <path class="cls-1" d="M22.6,89.3H0V1.3h59.8v18.8H22.6v16.6h32.3v18.8H22.6s0,33.8,0,33.8ZM20.6,38.7v-20.6h37.2V3.3H2v84h18.6v-33.8h32.3v-14.8H20.6ZM59.3,69.3h0c2.6-2.4,5.8-3.6,9.5-3.6s6.8,1.2,9.4,3.5c2.7,2.4,4,5.4,4,9s-1.4,6.6-4,8.9h0c-2.6,2.3-5.7,3.4-9.4,3.4s-6.9-1.1-9.5-3.4h0s0,0,0,0c-2.5-2.4-3.7-5.4-3.7-8.9s1.2-6.6,3.7-9h0ZM76.9,70.8c-2.2-2-4.8-3-8-3s-6,1-8.2,3c-2.1,2-3.1,4.5-3.1,7.6s1,5.4,3.1,7.4c2.2,1.9,4.9,2.9,8.2,2.9s5.9-1,8-2.9c2.2-2,3.4-4.5,3.4-7.4s-1.1-5.6-3.4-7.6ZM106.9,89.3h-23.5L117.3,1.3h20.9l34.4,88h-23.8l-5.9-15.5h-30.4l-5.7,15.5h0ZM105.5,87.3h-19.2L118.7,3.3h18.1l32.9,84h-19.4l-6-15.7v.2h-33v-.2l-5.8,15.7ZM177.3,69.3h0c2.6-2.4,5.8-3.6,9.5-3.6s6.8,1.2,9.4,3.5c2.7,2.4,4,5.4,4,9s-1.4,6.6-4,8.9h0c-2.6,2.3-5.7,3.4-9.4,3.4s-6.9-1.1-9.5-3.4h0s0,0,0,0c-2.5-2.4-3.7-5.4-3.7-8.9s1.2-6.6,3.7-9h0ZM194.9,70.8c-2.2-2-4.8-3-8-3s-6,1-8.2,3c-2.1,2-3.1,4.5-3.1,7.6s1,5.4,3.1,7.4c2.2,1.9,4.9,2.9,8.2,2.9s5.9-1,8-2.9c2.2-2,3.4-4.5,3.4-7.4s-1.1-5.6-3.4-7.6ZM285.9,89.4l7.4,16.8-1.4.9c-6.8,4.6-14.2,6.9-22.2,6.9s-15.5-2.4-21.1-7.5h0c-5.1-4.6-8-10.3-8.7-16.9-10.1-2.2-18.7-7.3-25.7-15.2h0c-7.3-8.5-10.9-18.2-10.9-29.2s4.5-23.2,13.4-32h0C225.7,4.4,236.5,0,249.1,0s23.3,4.4,32.2,13.3c9,8.9,13.6,19.6,13.6,32s-3.4,19.5-10.2,27.8c-6.4,7.8-14.1,13-23.2,15.8.4,1.8,1.2,3,2.4,3.9h0c1.7,1.3,4.1,2,7.2,2s8.6-1.3,12.8-4.1l2-1.3h0ZM259.3,87.4c9.4-2.5,17.4-7.7,23.9-15.6s9.7-16.8,9.7-26.5-4.3-22.1-13-30.6c-8.6-8.5-18.8-12.7-30.8-12.7s-22.4,4.2-31.1,12.7c-8.6,8.5-12.8,18.7-12.8,30.6s3.5,19.8,10.4,27.8c7,8,15.7,13,26,14.9.3,6.7,3,12.4,8.2,17,5.2,4.6,11.8,7,19.8,7s14.6-2.2,21.1-6.6l-5.8-13.1c-.6.4-1.1.7-1.7,1.1-4,2.2-8,3.4-12.2,3.4s-6.2-.8-8.4-2.4c-2.1-1.5-3.2-3.8-3.4-7ZM116.3,56.6h22.7l-11.2-33.6-11.5,33.6h0ZM127.8,29.3l-8.7,25.3h17.1s-8.4-25.4-8.4-25.3ZM232.5,27.9c-4.5,4.5-6.7,10.3-6.7,17.4s2.3,12.9,6.7,17.4c4.6,4.6,10.1,6.8,16.6,6.8s12-2.3,16.4-6.8c4.5-4.5,6.8-10.3,6.8-17.4s-2.3-12.9-6.8-17.4c-4.5-4.6-9.9-6.8-16.4-6.8s-12,2.3-16.6,6.9ZM231.1,26.5c-4.9,5-7.3,11.2-7.3,18.8s2.4,13.9,7.3,18.8c5,5,11,7.4,18,7.4s13-2.5,17.9-7.4,7.3-11.2,7.3-18.8-2.4-13.9-7.3-18.8-10.8-7.4-17.9-7.4-13,2.5-18,7.4h0Z"/>
  </g>
</svg>