<?xml version="1.0"?>
<svg xmlns="http://www.w3.org/2000/svg" width="48" height="48" viewBox="0 0 48 48" fill="none">
<path d="M39.8909 40.0698V44.8011C39.8909 45.2901 39.5975 45.7424 39.1331 45.9258C38.6809 46.1092 38.1553 46.0114 37.8009 45.6568L32.2031 40.0576" stroke="#B6E330" stroke-width="2.7" stroke-linecap="round" stroke-linejoin="round"/>
<path d="M38.666 17.9048H39.9005C43.2738 17.9048 45.9993 20.6433 45.9993 24.0175V33.9812C45.9993 37.3554 43.2616 40.0816 39.9005 40.0816" stroke="#B6E330" stroke-width="2.7" stroke-linecap="round" stroke-linejoin="round"/>
<path d="M32.2135 40.0697H25.2102C21.8369 40.0697 19.1113 37.3312 19.1113 33.9693V31.353" stroke="#B6E330" stroke-width="2.7" stroke-linecap="round" stroke-linejoin="round"/>
<path d="M15.9455 24.0179L10.1889 29.7761C9.83445 30.1306 9.3089 30.2284 8.85668 30.045C8.40446 29.8617 8.0989 29.4093 8.0989 28.9203V24.0301C6.48558 24.0301 4.92114 23.3822 3.78448 22.2452C2.63559 21.0961 2.00004 19.5434 2.00004 17.9297V8.11269C1.98782 4.73849 4.72558 2 8.0989 2H25.2344C28.6077 2 31.3455 4.73849 31.3455 8.11269V17.9175C31.3455 19.5312 30.6977 21.0961 29.561 22.233C28.4121 23.3822 26.8599 24.0179 25.2466 24.0179H15.9578H15.9455Z" stroke="#B6E330" stroke-width="2.7" stroke-linecap="round" stroke-linejoin="round"/>
<path d="M11.7676 9.33496H19.1009" stroke="#B6E330" stroke-width="2.7" stroke-linecap="round" stroke-linejoin="round"/>
<path d="M11.7676 16.6821H14.212" stroke="#B6E330" stroke-width="2.7" stroke-linecap="round" stroke-linejoin="round"/>
<path d="M31.334 31.353H36.2229" stroke="#B6E330" stroke-width="2.7" stroke-linecap="round" stroke-linejoin="round"/>
</svg>
