<?xml version="1.0"?>
<svg xmlns="http://www.w3.org/2000/svg" width="83" height="82" viewBox="0 0 83 82" fill="none">
<circle cx="41.5374" cy="41.0237" r="39.5963" stroke="#B2EC05" stroke-width="2.2844"/>
<path d="M41.6983 61.5594C37.3353 61.5598 33.0701 60.2664 29.4422 57.8427C25.8142 55.419 22.9865 51.974 21.3165 47.9432C19.6466 43.9124 19.2094 39.4769 20.0603 35.1976C20.9113 30.9184 23.0121 26.9876 26.097 23.9023C29.182 20.817 33.1126 18.7158 37.3918 17.8645C41.671 17.0131 46.1065 17.4498 50.1375 19.1194C54.1684 20.789 57.6138 23.6164 60.0378 27.2441C62.4618 30.8718 63.7556 35.1369 63.7556 39.4999C63.7496 45.3482 61.4238 50.9553 57.2886 55.0908C53.1535 59.2264 47.5466 61.5527 41.6983 61.5594ZM41.6983 18.8772C37.6184 18.8767 33.63 20.0862 30.2375 22.3527C26.8451 24.6192 24.2009 27.8408 22.6395 31.6101C21.0781 35.3794 20.6696 39.5271 21.4656 43.5286C22.2616 47.5301 24.2264 51.2057 27.1114 54.0905C29.9965 56.9753 33.6723 58.9397 37.6739 59.7353C41.6755 60.5308 45.8231 60.1219 49.5923 58.5601C53.3614 56.9983 56.5828 54.3538 58.8489 50.9611C61.115 47.5683 62.3241 43.5798 62.3232 39.4999C62.3175 34.0314 60.1428 28.7885 56.2762 24.9214C52.4096 21.0544 47.1668 18.8791 41.6983 18.8729V18.8772Z" fill="#B2EC05"/>
<path d="M24.9956 52.6361C23.6495 52.6646 22.307 52.4839 21.0163 52.1004C20.3391 51.9231 19.7052 51.6093 19.1535 51.1783C18.6019 50.7472 18.1442 50.208 17.8084 49.5937C16.7377 47.4386 18.0713 43.8202 19.8675 41.1903C19.9765 41.0379 20.1408 40.9343 20.3252 40.9016C20.5096 40.8689 20.6995 40.9098 20.8542 41.0155C21.0089 41.1211 21.116 41.2832 21.1526 41.4669C21.1892 41.6506 21.1523 41.8413 21.05 41.9982C19.2595 44.6152 18.4208 47.6062 19.0911 48.9562C19.3451 49.398 19.6859 49.7837 20.093 50.0902C20.5 50.3967 20.9649 50.6176 21.4597 50.7396C26.3715 52.3389 36.3906 49.9074 46.3904 44.6933C60.3796 37.3979 67.7337 28.3886 65.8293 24.5512C65.0729 23.0306 62.6779 22.212 59.2451 22.2936C59.151 22.2959 59.0574 22.2797 58.9697 22.2458C58.8819 22.212 58.8016 22.1611 58.7335 22.0963C58.5959 21.9652 58.516 21.7849 58.5113 21.595C58.5067 21.405 58.5777 21.221 58.7087 21.0834C58.8397 20.9458 59.02 20.8659 59.21 20.8612C63.2774 20.7624 66.0857 21.8431 67.112 23.913C69.6768 29.0741 60.8659 38.7587 47.0522 45.9624C38.9174 50.2046 30.6874 52.6361 24.9956 52.6361Z" fill="#B2EC05"/>
<path d="M61.4464 25.0073C61.3402 25.0073 61.2352 24.9836 61.1392 24.938C61.0432 24.8924 60.9585 24.826 60.8914 24.7437L58.6754 22.0299C58.6139 21.9548 58.5684 21.8679 58.5416 21.7746C58.5147 21.6813 58.5072 21.5835 58.5193 21.4872C58.5314 21.3908 58.563 21.298 58.6121 21.2142C58.6612 21.1305 58.7269 21.0576 58.805 21L61.6899 18.8736C61.7657 18.8178 61.8517 18.7774 61.9431 18.7548C62.0344 18.7322 62.1293 18.7279 62.2224 18.742C62.3154 18.7561 62.4048 18.7884 62.4854 18.837C62.5659 18.8856 62.6361 18.9497 62.6919 19.0254C62.7478 19.1012 62.7881 19.1872 62.8107 19.2785C62.8333 19.3699 62.8376 19.4648 62.8235 19.5579C62.8094 19.6509 62.7771 19.7403 62.7285 19.8208C62.6799 19.9014 62.6159 19.9716 62.5401 20.0274L60.2632 21.7069L62.0029 23.8377C62.0887 23.9426 62.143 24.0697 62.1594 24.2043C62.1758 24.3389 62.1537 24.4753 62.0957 24.5978C62.0376 24.7203 61.946 24.8238 61.8314 24.8963C61.7169 24.9687 61.5841 25.0072 61.4486 25.0073H61.4464Z" fill="#B2EC05"/>
<path d="M40.9033 54.0391C40.4213 54.0413 39.9438 53.947 39.4988 53.7619C37.8888 53.0787 36.9455 51.5309 36.303 50.2596L36.2601 50.1751C35.8755 49.4102 35.4773 48.6188 34.8434 48.3903C34.6208 48.3218 34.3911 48.2792 34.1587 48.2636C33.9234 48.2421 33.6897 48.2059 33.459 48.1554C32.2106 47.8689 31.1384 46.8934 30.1901 45.1681L29.9244 44.6667C29.5209 43.7174 28.9072 42.8721 28.1296 42.1943C27.8866 42.0252 27.6113 41.9082 27.3209 41.8505C27.0305 41.7928 26.7314 41.7958 26.4422 41.8591C26.2919 41.8871 26.1499 41.9486 26.0267 42.039C25.9034 42.1294 25.8021 42.2464 25.7303 42.3813C25.4438 42.9593 25.7553 43.697 26.1127 44.5521C26.5145 45.5126 26.9722 46.6012 26.5818 47.7207C26.0189 49.3271 24.0658 49.8772 22.4278 49.5878C22.2702 49.5611 22.1248 49.486 22.0117 49.373C21.9038 49.2595 21.836 49.1138 21.8188 48.9581C21.8016 48.8025 21.8359 48.6455 21.9164 48.5111C21.9969 48.3768 22.1192 48.2726 22.2646 48.2144C22.41 48.1563 22.5705 48.1474 22.7214 48.1891C23.7313 48.3516 24.9367 48.0831 25.2282 47.253C25.4366 46.6528 25.1229 45.9029 24.7906 45.1086C24.3609 44.0809 23.8731 42.9156 24.4447 41.7524C24.6083 41.4312 24.8407 41.15 25.1255 40.9289C25.4102 40.7078 25.7402 40.5522 26.092 40.4733C26.5829 40.359 27.0926 40.3501 27.5872 40.4471C28.0819 40.5442 28.5504 40.7449 28.9618 41.0362C29.9273 41.8344 30.6909 42.8491 31.1907 43.9978L31.4478 44.4798C32.1855 45.8227 32.9519 46.569 33.7848 46.7588C33.9605 46.7961 34.1382 46.8229 34.317 46.839C34.6643 46.8645 35.0072 46.933 35.3376 47.0431C36.5029 47.4643 37.0787 48.6095 37.5421 49.5291L37.5836 49.6129C38.1158 50.6657 38.8786 51.9399 40.0603 52.442C40.3567 52.5599 40.6743 52.6151 40.9932 52.604C41.312 52.5929 41.625 52.5158 41.9125 52.3775C42.088 52.2994 42.2443 52.1838 42.3705 52.039C42.4967 51.8941 42.5897 51.7234 42.643 51.5388C42.817 50.8398 42.3723 50.0656 41.9017 49.2469C41.7585 48.9948 41.6116 48.7456 41.4834 48.4927C40.7181 46.9217 40.4945 45.1415 40.8476 43.43C41.2007 41.7185 42.1105 40.1721 43.4351 39.0322C43.5598 38.9313 43.6872 38.8331 43.8147 38.735C44.1699 38.4968 44.4829 38.201 44.7408 37.8598C45.0119 37.2949 45.1377 36.6714 45.1068 36.0456C45.1177 35.6163 45.1579 35.1882 45.2271 34.7643C45.3621 34.1444 45.5625 33.5406 45.8251 32.963C46.0821 32.4201 46.264 31.8447 46.3659 31.2527C46.3867 30.9797 46.345 30.7055 46.2438 30.4511C46.1427 30.1966 45.9848 29.9686 45.7822 29.7845C45.7129 29.7135 45.6251 29.6633 45.5288 29.6395C45.4325 29.6157 45.3315 29.6193 45.2371 29.6498C44.925 29.8229 44.6656 30.0774 44.4865 30.3861C44.1891 30.8448 43.7923 31.2308 43.3256 31.5156C42.9391 31.702 42.5224 31.818 42.0951 31.8579C40.3141 32.1024 38.5343 32.3507 36.7557 32.6028C34.5598 32.91 33.1417 32.4545 32.5415 31.2455C32.2882 30.6239 32.2035 29.9465 32.2958 29.2817C32.3474 28.5655 32.4828 26.6653 33.9761 26.1024C35.185 25.6562 36.3038 26.4318 37.1195 26.9977L37.2771 27.1065C38.249 27.7805 40.0202 28.3184 40.7414 27.3371C40.803 27.2505 40.8596 27.1474 40.9176 27.0449C41.0533 26.7779 41.2278 26.5324 41.4355 26.3165C41.9796 25.8737 42.6557 25.6247 43.3571 25.6089C43.4609 25.5967 43.564 25.5846 43.6658 25.5695C44.2715 25.529 44.8606 25.3544 45.3907 25.0584C45.9207 24.7624 46.3783 24.3523 46.7304 23.8578C47.4094 22.7591 47.4467 21.1003 46.8257 19.1859C46.7905 19.095 46.7742 18.9978 46.7778 18.9004C46.7815 18.803 46.805 18.7073 46.8469 18.6193C46.8888 18.5313 46.9482 18.4527 47.0215 18.3885C47.0949 18.3242 47.1805 18.2756 47.2733 18.2456C47.3661 18.2157 47.464 18.2049 47.5611 18.2141C47.6581 18.2233 47.7523 18.2522 47.8378 18.2991C47.9233 18.3459 47.9983 18.4098 48.0583 18.4866C48.1182 18.5635 48.1619 18.6518 48.1865 18.7461C48.7165 20.3877 49.1054 22.7376 47.9459 24.6112C47.488 25.2866 46.8844 25.8507 46.1796 26.2619C45.4748 26.673 44.6867 26.9208 43.8735 26.9869C43.7553 27.0041 43.6407 27.0177 43.5254 27.0313C43.1364 27.0304 42.7553 27.1405 42.4267 27.3486C42.3226 27.4704 42.2341 27.6046 42.1631 27.7483C42.083 27.8961 41.995 28.0396 41.8996 28.178C40.6713 29.8496 38.1831 29.4794 36.4606 28.2861L36.3009 28.1758C35.6513 27.7253 34.9809 27.2605 34.4731 27.4453C34.052 27.605 33.8042 28.2381 33.7232 29.3791C33.66 29.7925 33.6948 30.215 33.8249 30.6124C34.1902 31.348 35.5123 31.3286 36.5544 31.1854C38.3307 30.9347 40.1155 30.684 41.8924 30.4398C42.1526 30.4195 42.4077 30.3563 42.6473 30.2529C42.9237 30.0597 43.1587 29.8133 43.3384 29.5281C43.6756 28.9758 44.1784 28.544 44.7752 28.294C45.0979 28.1856 45.4433 28.1633 45.7773 28.2292C46.1113 28.2952 46.4223 28.4471 46.6796 28.67C47.0701 29.0064 47.3743 29.4315 47.5668 29.9096C47.7593 30.3877 47.8346 30.905 47.7861 31.4181C47.6731 32.1427 47.4578 32.8476 47.1466 33.5116C46.924 33.9974 46.7519 34.5048 46.633 35.0257C46.5767 35.3861 46.5441 35.7497 46.5356 36.1144C46.566 36.9911 46.3623 37.86 45.9455 38.6319C45.6015 39.1165 45.1745 39.5365 44.6842 39.8724C44.5682 39.9619 44.4529 40.05 44.3411 40.1417C43.2635 41.0687 42.5234 42.3266 42.2364 43.7188C41.9493 45.111 42.1316 46.559 42.7547 47.8367C42.8743 48.0709 43.0075 48.3015 43.1408 48.5336C43.7051 49.5141 44.3447 50.6256 44.031 51.8847C43.9295 52.2714 43.744 52.631 43.4877 52.9378C43.2315 53.2447 42.9108 53.4913 42.5485 53.6602C42.0365 53.9112 41.4735 54.0409 40.9033 54.0391Z" fill="#B2EC05"/>
<path d="M58.0564 53.9171C57.9198 53.9169 57.7861 53.8776 57.671 53.804C56.3632 52.9674 55.4952 51.1797 56.3059 49.6377C56.5543 49.2012 56.8711 48.8072 57.2442 48.471C57.3924 48.3235 57.5414 48.1774 57.6739 48.0198C57.8888 47.7634 57.911 47.6101 57.9045 47.5829C57.7957 47.5203 57.6725 47.487 57.5469 47.4864C57.4213 47.4857 57.2978 47.5178 57.1883 47.5793C56.448 47.8833 55.6211 47.9009 54.8685 47.6289C54.1159 47.3568 53.4915 46.8145 53.1166 46.1075C52.9447 45.7181 52.8619 45.2952 52.8743 44.8696C52.8866 44.4441 52.9939 44.0268 53.1883 43.648C53.3562 43.2867 53.6038 42.9683 53.9126 42.7166C54.2214 42.4649 54.5832 42.2865 54.9709 42.1948C55.3319 42.1261 55.6999 42.1021 56.0667 42.1232C56.3746 42.1563 56.6859 42.1244 56.9806 42.0294C57.1716 41.8962 57.3263 41.7176 57.4308 41.5096C57.5354 41.3017 57.5864 41.0709 57.5794 40.8383C57.6265 40.5084 57.5916 40.1721 57.4778 39.8589C57.364 39.5457 57.1748 39.2654 56.9269 39.0427C56.5137 38.6848 56.063 38.3726 55.5826 38.1117C55.3161 37.9534 55.0447 37.7922 54.7783 37.616C54.635 37.5215 54.5125 37.447 54.403 37.3811C53.4819 36.8239 53.2255 36.4049 53.4146 34.8679C53.5655 33.9344 53.9373 33.0504 54.4989 32.2895C54.592 32.1463 54.6873 31.9937 54.7854 31.839C56.1563 29.598 56.1813 27.8927 56.2178 25.5363C56.2221 25.2183 56.2272 24.8917 56.2358 24.5551C56.2367 24.4607 56.2567 24.3674 56.2944 24.2808C56.3321 24.1942 56.3868 24.1161 56.4552 24.051C56.5237 23.9859 56.6045 23.9353 56.6929 23.9021C56.7813 23.8688 56.8755 23.8537 56.9699 23.8575C57.1597 23.8624 57.3399 23.9425 57.4707 24.0801C57.6015 24.2178 57.6723 24.4018 57.6675 24.5916C57.6596 24.9232 57.6546 25.2448 57.6503 25.5578C57.6138 27.9493 57.583 30.0148 56.0087 32.5889C55.9099 32.7515 55.8096 32.9083 55.7115 33.063C55.2674 33.6447 54.969 34.3242 54.8413 35.0448C54.772 35.3364 54.7632 35.6392 54.8155 35.9344C54.9191 36.0195 55.0306 36.0946 55.1485 36.1585C55.2739 36.2337 55.4143 36.3197 55.5733 36.425C55.8175 36.5861 56.0703 36.7358 56.3188 36.8833C56.8896 37.1949 57.4239 37.5692 57.9117 37.9992C58.3107 38.3666 58.6181 38.8224 58.8094 39.3299C59.0007 39.8375 59.0705 40.3827 59.0132 40.9221C59.0182 41.4157 58.8878 41.9012 58.6361 42.3259C58.3844 42.7505 58.0212 43.0981 57.5858 43.3307C57.0961 43.5257 56.5674 43.603 56.0424 43.5563C55.7875 43.54 55.5316 43.5525 55.2796 43.5936C55.1026 43.6405 54.9385 43.7268 54.7995 43.846C54.6605 43.9652 54.5502 44.1141 54.4767 44.2819C54.3786 44.4682 54.3226 44.6739 54.3128 44.8843C54.3031 45.0948 54.3397 45.3047 54.4201 45.4994C54.6359 45.8713 54.9782 46.1531 55.3845 46.2934C55.7908 46.4337 56.2341 46.4231 56.6333 46.2636C57.0341 46.0638 57.4898 46.002 57.9294 46.0879C58.369 46.1737 58.7679 46.4025 59.0641 46.7385C59.236 46.972 59.7237 47.8207 58.774 48.9451C58.6143 49.1349 58.4367 49.3126 58.2583 49.4895C57.9935 49.7239 57.7656 49.997 57.5822 50.2995C57.1704 51.0838 57.6983 52.1201 58.4481 52.6C58.5785 52.6835 58.6783 52.8071 58.7326 52.9521C58.7868 53.0972 58.7926 53.2559 58.7491 53.4045C58.7055 53.5531 58.6149 53.6836 58.4909 53.7764C58.367 53.8692 58.2163 53.9193 58.0614 53.9193L58.0564 53.9171Z" fill="#B2EC05"/>
<path d="M48.5887 60.4128C48.4202 60.4126 48.2572 60.353 48.1283 60.2446C47.9994 60.1361 47.9129 59.9857 47.8839 59.8198C47.8208 59.455 47.6901 59.1052 47.4986 58.7884C47.0083 58.0281 46.3069 57.4272 45.4803 57.0595C44.9843 56.7858 44.4235 56.6517 43.8574 56.6713C43.0561 56.8451 42.3114 57.2175 41.6915 57.7542C40.6888 58.4611 39.5593 59.2654 38.1663 58.9882C37.7503 58.8905 37.3498 58.7361 36.976 58.5291L34.2192 57.1683C34.048 57.0687 33.8567 57.0086 33.6593 56.9925C33.4619 56.9764 33.2634 57.0047 33.0783 57.0752C32.8249 57.2098 32.6023 57.3958 32.4247 57.6212C32.2471 57.8466 32.1185 58.1066 32.047 58.3845C32.0237 58.48 31.9811 58.5698 31.9216 58.6482C31.8622 58.7265 31.7873 58.7918 31.7015 58.84C31.6157 58.8881 31.5209 58.918 31.4231 58.9279C31.3252 58.9378 31.2264 58.9275 31.1327 58.8975C31.039 58.8675 30.9525 58.8186 30.8786 58.7537C30.8047 58.6888 30.7449 58.6094 30.703 58.5204C30.6611 58.4314 30.638 58.3348 30.6351 58.2365C30.6322 58.1382 30.6496 58.0403 30.6861 57.949C30.8176 57.4734 31.0496 57.0315 31.3663 56.6532C31.6831 56.2749 32.0774 55.9689 32.5225 55.7559C32.8972 55.6033 33.3011 55.5357 33.7051 55.558C34.1091 55.5803 34.5032 55.6919 34.8588 55.8849L37.6241 57.2528C37.8842 57.3995 38.1623 57.5117 38.4514 57.5866C39.2342 57.7442 39.9927 57.2063 40.8679 56.5839C41.6869 55.8933 42.6736 55.4311 43.7284 55.2438C44.5562 55.1958 45.381 55.3783 46.1113 55.771C47.1856 56.2596 48.0937 57.0515 48.724 58.0493C49.008 58.5181 49.2023 59.0356 49.297 59.5755C49.3133 59.6682 49.3111 59.7632 49.2907 59.8551C49.2702 59.9469 49.2318 60.0339 49.1778 60.1109C49.1237 60.1879 49.055 60.2535 48.9755 60.304C48.8961 60.3544 48.8074 60.3887 48.7147 60.4049C48.673 60.4108 48.6308 60.4134 48.5887 60.4128Z" fill="#B2EC05"/>
</svg>
