<?xml version="1.0"?>
<svg xmlns="http://www.w3.org/2000/svg" width="132" height="24" viewBox="0 0 132 24" fill="none">
<path d="M82.6065 12.9984C82.6255 12.9857 82.647 12.9772 82.6696 12.9737C82.7757 12.9322 82.8748 12.8952 82.9608 12.8591C83.0141 12.8315 83.0696 12.8082 83.1266 12.7894C84.7571 12.0161 86.1236 10.3125 86.1236 8.51899C86.1236 4.75472 83.3248 3.57227 80.0506 3.57227H73.8706C73.932 3.69395 74.2451 5.02983 74.2451 5.08097V21.6626H77.1062C77.172 21.6632 77.2372 21.6506 77.2981 21.6256C77.359 21.6005 77.4142 21.5635 77.4607 21.5167C77.5072 21.4699 77.5439 21.4142 77.5687 21.353C77.5935 21.2918 77.606 21.2262 77.6053 21.16V13.6015H78.9727C80.9847 13.6015 82.2319 13.1342 82.5372 13.0266C82.5468 13.0081 82.5784 13.001 82.603 12.9984H82.6065ZM79.1902 11.1943H77.6114V6.04916H79.7419C81.2592 6.04916 82.5538 6.86567 82.5538 8.48813C82.5538 10.5885 81.1022 11.1916 79.1928 11.1916" fill="#D3D3D3"/>
<path d="M65.4428 3.57227H59.7417C59.8022 3.69307 60.1127 5.02983 60.1127 5.08097V21.6626H62.9773C63.1119 21.6643 63.2418 21.6124 63.3385 21.5183C63.4353 21.4241 63.4911 21.2954 63.4939 21.16V14.3951H65.5016C68.8275 14.3951 71.9921 12.7638 71.9921 8.98721C71.9921 4.90726 69.0038 3.57227 65.4402 3.57227H65.4428ZM65.57 11.9993H63.5036V6.02006H65.5832C67.4671 6.02006 68.403 7.18399 68.403 8.98721C68.403 10.7428 67.3987 11.9993 65.5726 11.9993" fill="#D3D3D3"/>
<path d="M79.813 14.9746L83.9617 21.6611H87.7946L83.1302 14.457C82.0573 14.7994 80.9386 14.9749 79.813 14.9773" fill="#D3D3D3"/>
<path d="M88.7701 5.08097V21.6582H91.6645C91.7989 21.6606 91.9286 21.6093 92.0253 21.5155C92.122 21.4218 92.1777 21.2933 92.1803 21.1583V3.57227H88.4438C88.4552 3.69307 88.771 5.02895 88.771 5.08097" fill="#D3D3D3"/>
<path d="M104.972 14.0495C104.632 15.0194 104.561 15.9135 104.314 16.954C104.113 15.9267 103.973 14.9462 103.597 13.9489L99.7777 3.57227H95.0493C95.0572 3.69307 95.3905 5.02895 95.3905 5.08097V21.6477H97.6113C97.7402 21.6362 97.8602 21.5768 97.9478 21.4811C98.0355 21.3853 98.0843 21.2602 98.0849 21.1301V9.38489C98.0849 8.78264 97.9648 8.17158 97.9534 7.60372C98.1542 8.19274 98.3288 8.78264 98.5393 9.38489L103.068 21.6626H104.893L109.289 9.38489C109.5 8.78264 109.674 8.19274 109.878 7.60372C109.803 8.19461 109.759 8.78922 109.748 9.38489V21.6477H112.607C112.736 21.6369 112.857 21.5778 112.946 21.482C113.034 21.3862 113.083 21.2607 113.084 21.1301V3.57227H108.743L104.972 14.0495Z" fill="#D3D3D3"/>
<path d="M123.35 3.30752C117.85 3.30752 114.818 7.30723 114.818 12.5917C114.818 17.8347 117.82 21.9384 123.326 21.9384C128.783 21.9384 132.002 17.9705 132.002 12.6534C132.002 7.23316 128.955 3.30664 123.352 3.30664L123.35 3.30752ZM123.427 19.5982C119.561 19.5982 118.439 15.7387 118.439 12.4956C118.439 9.30532 119.588 5.64157 123.384 5.64157C127.261 5.64157 128.368 9.52929 128.368 12.7363C128.368 15.9433 127.219 19.5982 123.427 19.5982Z" fill="#D3D3D3"/>
<path d="M1.33162 12.4438C1.33162 13.7823 2.24555 14.9269 3.83134 14.9269C4.35139 14.933 4.86446 14.8061 5.32239 14.5583V13.3123H3.42437V12.2701H6.52489V15.0697C5.78379 15.7493 4.81423 16.1217 3.81116 16.1119C1.6158 16.1119 -0.00244141 14.4586 -0.00244141 12.4306C-0.00244141 10.4025 1.58247 8.73242 3.78836 8.73242C4.82508 8.73242 5.6171 9.01811 6.36965 9.59038L5.78638 10.5736C5.0847 10.1036 4.48565 9.90958 3.82432 9.90958C2.22538 9.90958 1.33162 11.1458 1.33162 12.4438Z" fill="#D3D3D3"/>
<path d="M13.6801 13.3004C13.802 14.0667 14.1879 14.9758 14.9404 14.9758C15.2315 14.9726 15.5107 14.8596 15.7228 14.6592L16.1798 15.5586C15.7965 15.924 15.2852 16.1224 14.7571 16.1106C13.0801 16.1106 12.5644 14.1892 12.4907 13.3718H11.29V15.9977H9.98926V8.8457H13.0591C14.4712 8.8457 15.2746 9.91882 15.2746 11.1445C15.2737 12.1867 14.6738 13.0465 13.6801 13.3004ZM12.8565 12.3305C13.5274 12.3305 13.9546 11.8393 13.9546 11.1348C13.9546 10.4302 13.516 9.92852 12.8565 9.92852H11.29V12.3305H12.8565Z" fill="#D3D3D3"/>
<path d="M24.7544 8.8457V13.3216C24.7544 15.1495 23.4335 16.1106 21.8784 16.1106C20.3233 16.1106 19.0024 15.1495 19.0024 13.3216V8.8457H20.3032V13.3216C20.3032 14.4344 21.025 14.9863 21.8819 14.9863C22.7389 14.9863 23.4607 14.4344 23.4607 13.3216V8.8457H24.7544Z" fill="#D3D3D3"/>
<path d="M28.5239 15.9977V8.8457H31.5122C32.9348 8.8457 33.7374 9.90383 33.7374 11.1445C33.7374 12.3851 32.9243 13.3824 31.5122 13.3824H29.8247V15.9977H28.5239ZM31.3096 12.3499C31.9902 12.3499 32.4077 11.8499 32.4077 11.1348C32.4077 10.3985 31.9902 9.9003 31.3096 9.9003H29.8247V12.3516L31.3096 12.3499Z" fill="#D3D3D3"/>
<path d="M40.2306 8.73438C42.2637 8.73438 43.9513 10.3895 43.9513 12.4228C43.9513 14.4562 42.2637 16.1113 40.2306 16.1113C38.1975 16.1113 36.5117 14.4562 36.5117 12.4228C36.5117 10.3895 38.1984 8.73438 40.2306 8.73438ZM40.2306 14.9262C41.5419 14.9262 42.6295 13.868 42.6295 12.4228C42.6295 10.9776 41.5419 9.91948 40.2306 9.91948C38.9194 9.91948 37.8326 10.982 37.8326 12.4228C37.8326 13.8636 38.9202 14.9262 40.2306 14.9262Z" fill="#D3D3D3"/>
<path d="M52.6794 0H52.0269V24H52.6794V0Z" fill="#D3D3D3"/>
</svg>
