<?xml version="1.0"?>
<svg xmlns="http://www.w3.org/2000/svg" width="48" height="53" viewBox="0 0 48 53" fill="none">
<path d="M32.6831 2C25.3343 2 19.377 7.95734 19.377 15.3061C19.377 19.1811 21.0345 22.6681 23.678 25.1L23.6636 30.9857L28.7915 28.0325C30.0225 28.4086 31.3289 28.6122 32.6831 28.6122C40.0318 28.6122 45.9892 22.6549 45.9892 15.3061C45.9892 7.95747 40.0318 2 32.6831 2Z" stroke="#B6E330" stroke-width="2.5" stroke-miterlimit="10" stroke-linecap="round" stroke-linejoin="round"/>
<path d="M29.998 11.9004C29.998 10.3008 31.2948 9.00413 32.8943 9.00413C34.4938 9.00413 35.7905 10.3008 35.7905 11.9004C35.7905 13.1572 34.9901 14.2269 33.8712 14.6278C33.2857 14.8375 32.8943 15.3929 32.8943 16.0148V17.6929" stroke="#B6E330" stroke-width="2.5" stroke-miterlimit="10"/>
<path d="M32.8945 20.5884V23.4854" stroke="#B6E330" stroke-width="2.5" stroke-miterlimit="10"/>
<path d="M23.993 51.0005H2V45.1528C2 41.5799 4.89643 38.6836 8.46919 38.6836H17.5237C21.0966 38.6836 23.9929 41.58 23.9929 45.1528V51.0005H23.993Z" stroke="#B6E330" stroke-width="2.5" stroke-miterlimit="10" stroke-linecap="round" stroke-linejoin="round"/>
<path d="M12.9973 26.7769C10.2388 26.7769 8.00195 29.0139 8.00195 31.7734V33.6864C8.00195 36.4459 10.239 38.6829 12.9985 38.6829C15.757 38.6829 17.9941 36.4459 17.9941 33.6864V31.7733C17.9939 29.0139 15.7569 26.7769 12.9973 26.7769Z" stroke="#B6E330" stroke-width="2.5" stroke-miterlimit="10" stroke-linecap="round" stroke-linejoin="round"/>
<path d="M7.37695 46.5278V51" stroke="#B6E330" stroke-width="2.5" stroke-miterlimit="10" stroke-linecap="round" stroke-linejoin="round"/>
<path d="M18.8848 46.5278V51" stroke="#B6E330" stroke-width="2.5" stroke-miterlimit="10" stroke-linecap="round" stroke-linejoin="round"/>
</svg>
