<?xml version="1.0"?>
<svg xmlns="http://www.w3.org/2000/svg" width="16" height="13" viewBox="0 0 16 13" fill="none">
<path d="M12.9802 0.882584C13.23 0.63448 13.5624 0.497317 13.9072 0.50004C14.2521 0.502762 14.5824 0.645157 14.8286 0.897177C15.0747 1.1492 15.2174 1.49113 15.2265 1.85082C15.2356 2.21052 15.1105 2.55984 14.8774 2.82508L7.80277 12.0565C7.68112 12.1933 7.5343 12.303 7.37108 12.3791C7.20786 12.4553 7.0316 12.4963 6.85284 12.4998C6.67407 12.5032 6.49648 12.469 6.33067 12.3992C6.16486 12.3294 6.01424 12.2255 5.88783 12.0935L1.1962 7.19846C1.06555 7.07144 0.960755 6.91826 0.888072 6.74806C0.815389 6.57786 0.776307 6.39413 0.773156 6.20783C0.770006 6.02153 0.802852 5.83648 0.869735 5.66371C0.936618 5.49094 1.03617 5.334 1.16245 5.20225C1.28872 5.07049 1.43914 4.96663 1.60473 4.89684C1.77032 4.82706 1.94768 4.79279 2.12623 4.79608C2.30479 4.79936 2.48088 4.84014 2.64401 4.91598C2.80713 4.99181 2.95394 5.10115 3.07569 5.23747L6.78856 9.10951L12.9465 0.923285C12.9576 0.909041 12.9695 0.895453 12.982 0.882584H12.9802Z" fill="#21B357"/>
</svg>
