<?xml version="1.0"?>
<svg xmlns="http://www.w3.org/2000/svg" width="25" height="25" viewBox="0 0 25 25" fill="none">
<path d="M13.3459 21.5622H7.18391C6.04951 21.5622 5.1299 20.6426 5.1299 19.5082V12.3191C5.1299 11.1847 6.04951 10.2651 7.18391 10.2651H17.454C18.5884 10.2651 19.508 11.1847 19.508 12.3191V13.3462" stroke="white" stroke-width="1.32235" stroke-linecap="round" stroke-linejoin="round"/>
<path fill-rule="evenodd" clip-rule="evenodd" d="M15.3999 18.397V17.0288C15.3999 16.748 15.5824 16.4999 15.8504 16.4161L17.776 15.8144C17.9007 15.7754 18.0343 15.7754 18.1589 15.8144L20.0846 16.4161C20.3525 16.4999 20.535 16.748 20.535 17.0288V18.397C20.535 19.7348 19.7051 20.9322 18.4525 21.402L18.0802 21.5416C18.0075 21.5689 17.9274 21.5689 17.8548 21.5416L17.4824 21.402C16.2298 20.9322 15.3999 19.7348 15.3999 18.397Z" stroke="white" stroke-width="1.32235" stroke-linecap="round" stroke-linejoin="round"/>
<path d="M8.21091 10.2652V7.18419V7.18419C8.21091 4.9154 10.0501 3.07617 12.3189 3.07617V3.07617C14.5877 3.07617 16.427 4.9154 16.427 7.18419V7.18419V10.2652" stroke="white" stroke-width="1.32235" stroke-linecap="round" stroke-linejoin="round"/>
</svg>
