<?xml version="1.0"?>
<svg xmlns="http://www.w3.org/2000/svg" width="48" height="37" viewBox="0 0 48 37" fill="none">
<path d="M8.20959 36.7231C7.84172 36.7231 7.47441 36.5798 7.19859 36.2945C2.55647 31.4946 0 25.1259 0 18.3615C0 11.5986 2.55563 5.2309 7.19597 0.431367C7.73569 -0.126914 8.62584 -0.142102 9.1845 0.397898C9.74278 0.937711 9.75778 1.82796 9.21797 2.38634C5.08734 6.65862 2.8125 12.332 2.8125 18.3615C2.8125 24.3924 5.08809 30.0667 9.22031 34.3392C9.76022 34.8975 9.74541 35.7878 9.18713 36.3277C8.91403 36.5918 8.56153 36.7231 8.20959 36.7231Z" fill="#B6E330"/>
<path d="M12.8948 31.8788C12.527 31.8788 12.1597 31.7354 11.8838 31.4501C8.49516 27.9464 6.62897 23.2981 6.62897 18.3616C6.62897 13.4266 8.49422 8.77943 11.8811 5.2759C12.4208 4.71743 13.3112 4.70243 13.8696 5.24224C14.4279 5.78205 14.4429 6.6723 13.9031 7.23068C11.0259 10.207 9.44137 14.1599 9.44137 18.3616C9.44137 22.5646 11.0267 26.5184 13.9054 29.495C14.4454 30.0533 14.4305 30.9435 13.8722 31.4834C13.5993 31.7473 13.2468 31.8788 12.8948 31.8788Z" fill="#B6E330"/>
<path d="M17.58 27.0343C17.2121 27.0343 16.8448 26.891 16.569 26.6057C14.4338 24.398 13.2579 21.4701 13.2579 18.3615C13.2579 15.2545 14.4328 12.3277 16.5662 10.1203C17.1057 9.56196 17.9961 9.54649 18.5546 10.0865C19.1131 10.6262 19.1283 11.5165 18.5886 12.0749C16.9647 13.7551 16.0704 15.9877 16.0704 18.3616C16.0704 20.7367 16.9655 22.9701 18.5907 24.6507C19.1307 25.2089 19.1158 26.0992 18.5574 26.6391C18.2844 26.903 17.9319 27.0343 17.58 27.0343Z" fill="#B6E330"/>
<path d="M39.7878 36.7257C39.4357 36.7257 39.0833 36.5944 38.8102 36.3302C38.252 35.7902 38.2373 34.9 38.7773 34.3418C42.911 30.0688 45.1875 24.3937 45.1875 18.3616C45.1875 12.3308 42.9119 6.65646 38.7797 2.3839C38.2398 1.82562 38.2546 0.935367 38.813 0.395461C39.3713 -0.144633 40.2616 -0.129539 40.8014 0.428648C45.4434 5.22846 48 11.5972 48 18.3616C48 25.1275 45.4425 31.4971 40.7986 36.2973C40.5228 36.5824 40.1555 36.7257 39.7878 36.7257Z" fill="#B6E330"/>
<path d="M35.1026 31.8814C34.7505 31.8814 34.398 31.75 34.1249 31.4858C33.5668 30.9457 33.5522 30.0554 34.0921 29.4973C36.9724 26.5206 38.5585 22.5658 38.5585 18.3616C38.5585 14.1587 36.9732 10.2048 34.0945 7.22824C33.5545 6.66996 33.5694 5.77971 34.1277 5.2398C34.6861 4.69971 35.5763 4.7148 36.1162 5.27299C39.5048 8.7769 41.371 13.4251 41.371 18.3616C41.371 23.2996 39.5038 27.949 36.1134 31.4531C35.8376 31.7381 35.4703 31.8814 35.1026 31.8814Z" fill="#B6E330"/>
<path d="M30.4174 27.037C30.0652 27.037 29.7126 26.9055 29.4396 26.6411C28.8815 26.1011 28.8669 25.2108 29.407 24.6527C31.0337 22.972 31.9295 20.7377 31.9295 18.3615C31.9295 15.9865 31.0344 13.7531 29.4092 12.0725C28.8692 11.5142 28.8841 10.624 29.4424 10.0841C30.0007 9.54396 30.891 9.55905 31.4308 10.1173C33.566 12.3251 34.7419 15.253 34.7419 18.3615C34.7419 21.4717 33.5649 24.4006 31.4278 26.6086C31.1522 26.8937 30.785 27.037 30.4174 27.037Z" fill="#B6E330"/>
<path d="M24 22.5816C21.6939 22.5816 19.8179 20.6891 19.8179 18.3628C19.8179 16.0366 21.694 14.1441 24 14.1441C26.3061 14.1441 28.1821 16.0366 28.1821 18.3628C28.1821 20.6891 26.3061 22.5816 24 22.5816Z" fill="#B6E330"/>
</svg>
