<?xml version="1.0"?>
<svg xmlns="http://www.w3.org/2000/svg" width="82" height="82" viewBox="0 0 82 82" fill="none">
<circle cx="40.7385" cy="40.7385" r="39.5963" stroke="#B2EC05" stroke-width="2.2844"/>
<g clip-path="url(#clip0_11331_56)">
<path d="M41.4992 47.5628C40.3034 47.5628 39.1344 47.2082 38.1402 46.5439C37.1459 45.8795 36.371 44.9353 35.9133 43.8305C35.4557 42.7257 35.336 41.51 35.5693 40.3372C35.8026 39.1644 36.3785 38.0871 37.224 37.2415C38.0696 36.396 39.1469 35.8201 40.3198 35.5869C41.4926 35.3536 42.7083 35.4733 43.813 35.931C44.9178 36.3886 45.8621 37.1636 46.5264 38.1579C47.1907 39.1522 47.5453 40.3211 47.5453 41.5169C47.5434 43.1199 46.9058 44.6566 45.7724 45.79C44.6389 46.9235 43.1021 47.561 41.4992 47.5628ZM41.4992 36.9943C40.6047 36.9943 39.7303 37.2595 38.9866 37.7565C38.2428 38.2534 37.6631 38.9598 37.3208 39.7862C36.9785 40.6126 36.889 41.5219 37.0635 42.3992C37.238 43.2765 37.6687 44.0824 38.3012 44.7149C38.9337 45.3474 39.7396 45.7781 40.6169 45.9527C41.4942 46.1272 42.4035 46.0376 43.2299 45.6953C44.0563 45.353 44.7627 44.7733 45.2596 44.0296C45.7566 43.2858 46.0218 42.4114 46.0218 41.5169C46.0205 40.3179 45.5435 39.1683 44.6957 38.3205C43.8478 37.4726 42.6982 36.9957 41.4992 36.9943Z" fill="#B2EC05"/>
<path d="M49.4252 58.6602H33.5723C33.3702 58.6602 33.1765 58.5799 33.0336 58.4371C32.8908 58.2942 32.8105 58.1005 32.8105 57.8984V54.7277C32.8105 52.4235 33.7259 50.2136 35.3553 48.5843C36.9846 46.9549 39.1945 46.0396 41.4987 46.0396C43.803 46.0396 46.0128 46.9549 47.6422 48.5843C49.2715 50.2136 50.1869 52.4235 50.1869 54.7277V57.8984C50.1869 58.1005 50.1066 58.2942 49.9638 58.4371C49.8209 58.5799 49.6272 58.6602 49.4252 58.6602ZM34.334 57.1367H48.6634V54.7277C48.6634 52.8275 47.9086 51.0051 46.5649 49.6615C45.2213 48.3178 43.3989 47.563 41.4987 47.563C39.5985 47.563 37.7761 48.3178 36.4325 49.6615C35.0888 51.0051 34.334 52.8275 34.334 54.7277V57.1367Z" fill="#B2EC05"/>
<path d="M52.3118 38.1654C51.116 38.1654 49.9471 37.8108 48.9528 37.1465C47.9585 36.4822 47.1835 35.5379 46.7259 34.4331C46.2683 33.3284 46.1485 32.1127 46.3818 30.9399C46.6151 29.767 47.1909 28.6897 48.0364 27.8442C48.882 26.9986 49.9593 26.4227 51.1321 26.1894C52.3049 25.9561 53.5206 26.0759 54.6254 26.5335C55.7302 26.9911 56.6744 27.766 57.3388 28.7603C58.0032 29.7546 58.3578 30.9235 58.3578 32.1193C58.3559 33.7222 57.7183 35.259 56.5849 36.3924C55.4515 37.5259 53.9148 38.1635 52.3118 38.1654ZM52.3118 27.5967C51.4173 27.5967 50.5429 27.8619 49.7992 28.3588C49.0554 28.8557 48.4757 29.5621 48.1334 30.3885C47.791 31.2149 47.7015 32.1242 47.8759 33.0015C48.0504 33.8789 48.4812 34.6847 49.1137 35.3172C49.7462 35.9498 50.552 36.3805 51.4293 36.555C52.3066 36.7295 53.216 36.64 54.0424 36.2977C54.8688 35.9554 55.5752 35.3757 56.0721 34.632C56.5691 33.8882 56.8343 33.0138 56.8343 32.1193C56.833 30.9203 56.356 29.7708 55.5082 28.9229C54.6604 28.075 53.5109 27.5981 52.3118 27.5967Z" fill="#B2EC05"/>
<path d="M60.2393 49.2621H49.8474C49.6454 49.2621 49.4517 49.1818 49.3088 49.039C49.166 48.8961 49.0857 48.7024 49.0857 48.5004C49.0857 48.2983 49.166 48.1046 49.3088 47.9617C49.4517 47.8189 49.6454 47.7386 49.8474 47.7386H59.4775V45.3298C59.4772 44.0784 59.1491 42.849 58.5261 41.7638C57.9031 40.6785 57.0068 39.7753 55.9264 39.144C54.846 38.5127 53.6191 38.1752 52.3678 38.1653C51.1165 38.1553 49.8843 38.4731 48.794 39.087C48.6181 39.1855 48.4105 39.2102 48.2164 39.1559C48.0224 39.1015 47.8578 38.9725 47.7586 38.797C47.6595 38.6216 47.634 38.414 47.6876 38.2197C47.7412 38.0254 47.8697 37.8604 48.0448 37.7606C49.3669 37.0157 50.8611 36.63 52.3786 36.6419C53.8961 36.6537 55.384 37.0628 56.6943 37.8283C58.0046 38.5938 59.0917 39.6891 59.8472 41.0052C60.6028 42.3213 61.0006 43.8122 61.001 45.3298V48.5004C61.001 48.7024 60.9207 48.8961 60.7779 49.039C60.635 49.1818 60.4413 49.2621 60.2393 49.2621Z" fill="#B2EC05"/>
<path d="M30.6867 38.1654C29.4909 38.1654 28.3219 37.8108 27.3277 37.1464C26.3334 36.4821 25.5585 35.5378 25.1009 34.433C24.6432 33.3283 24.5235 32.1126 24.7568 30.9398C24.9901 29.767 25.5659 28.6897 26.4115 27.8441C27.257 26.9985 28.3343 26.4227 29.5072 26.1894C30.68 25.9561 31.8956 26.0759 33.0004 26.5335C34.1052 26.9911 35.0495 27.766 35.7138 28.7603C36.3782 29.7546 36.7328 30.9235 36.7328 32.1193C36.7309 33.7223 36.0933 35.259 34.9599 36.3925C33.8264 37.5259 32.2896 38.1635 30.6867 38.1654ZM30.6867 27.5967C29.7922 27.5967 28.9178 27.8619 28.1741 28.3589C27.4303 28.8558 26.8506 29.5622 26.5083 30.3886C26.166 31.215 26.0765 32.1243 26.251 33.0016C26.4255 33.8789 26.8562 34.6848 27.4887 35.3173C28.1212 35.9498 28.9271 36.3805 29.8044 36.555C30.6817 36.7295 31.591 36.64 32.4174 36.2977C33.2438 35.9554 33.9502 35.3757 34.4471 34.6319C34.9441 33.8882 35.2093 33.0138 35.2093 32.1193C35.208 30.9203 34.731 29.7707 33.8832 28.9228C33.0353 28.075 31.8857 27.5981 30.6867 27.5967Z" fill="#B2EC05"/>
<path d="M33.1535 49.2621H22.7617C22.5597 49.2621 22.366 49.1818 22.2231 49.039C22.0803 48.8961 22 48.7024 22 48.5004V45.3298C22.0004 43.8122 22.3982 42.3213 23.1537 41.0052C23.9093 39.6891 24.9963 38.5938 26.3067 37.8283C27.617 37.0628 29.1049 36.6537 30.6224 36.6419C32.1399 36.63 33.6341 37.0157 34.9562 37.7606C35.1321 37.86 35.2613 38.0251 35.3155 38.2198C35.3696 38.4144 35.3441 38.6226 35.2448 38.7985C35.1454 38.9744 34.9802 39.1036 34.7856 39.1577C34.5909 39.2118 34.3827 39.1864 34.2068 39.087C33.1165 38.4731 31.8844 38.1553 30.6331 38.1653C29.3818 38.1754 28.1549 38.5128 27.0746 39.1441C25.9942 39.7754 25.0979 40.6786 24.4749 41.7638C23.8519 42.849 23.5238 44.0785 23.5234 45.3298V47.7386H33.1535C33.3556 47.7386 33.5493 47.8189 33.6922 47.9617C33.835 48.1046 33.9153 48.2983 33.9153 48.5004C33.9153 48.7024 33.835 48.8961 33.6922 49.039C33.5493 49.1818 33.3556 49.2621 33.1535 49.2621Z" fill="#B2EC05"/>
<path d="M41.4992 31.8587C40.3034 31.8587 39.1345 31.5041 38.1402 30.8398C37.1459 30.1754 36.371 29.2312 35.9134 28.1264C35.4557 27.0216 35.336 25.806 35.5693 24.6331C35.8026 23.4603 36.3784 22.383 37.224 21.5375C38.0695 20.6919 39.1468 20.1161 40.3197 19.8828C41.4925 19.6495 42.7081 19.7692 43.8129 20.2268C44.9177 20.6844 45.862 21.4594 46.5263 22.4537C47.1907 23.4479 47.5453 24.6169 47.5453 25.8127C47.5434 27.4156 46.9058 28.9524 45.7724 30.0858C44.6389 31.2193 43.1021 31.8569 41.4992 31.8587ZM41.4992 21.29C40.6047 21.29 39.7303 21.5553 38.9866 22.0522C38.2428 22.5492 37.6631 23.2555 37.3208 24.0819C36.9785 24.9083 36.889 25.8177 37.0635 26.695C37.238 27.5723 37.6687 28.3782 38.3012 29.0107C38.9337 29.6432 39.7396 30.0739 40.6169 30.2484C41.4942 30.4229 42.4035 30.3333 43.2299 29.991C44.0563 29.6487 44.7627 29.0691 45.2596 28.3253C45.7566 27.5816 46.0218 26.7072 46.0218 25.8127C46.0205 24.6136 45.5435 23.4641 44.6957 22.6162C43.8478 21.7683 42.6982 21.2914 41.4992 21.29Z" fill="#B2EC05"/>
</g>
<defs>
<clipPath id="clip0_11331_56">
<rect width="39" height="39" fill="white" transform="translate(22 19.7148)"/>
</clipPath>
</defs>
</svg>
